<svg width="512" height="512" viewBox="0 0 512 512" fill="none" xmlns="http://www.w3.org/2000/svg">
<path d="M365.996 175C426.574 175 460.338 190.203 461.956 190.95H461.955C464.31 192.027 465.94 194.286 466.214 196.873L466.236 197.125L466.237 197.133L467.985 223.01L467.986 223.021L465.99 223.145L467.986 223.022C468.18 226.185 466.283 229.141 463.307 230.333L463.296 230.337C462.304 230.728 461.193 231.328 460.285 231.93C459.833 232.229 459.464 232.508 459.202 232.737C459.116 232.813 459.054 232.873 459.01 232.917C458.746 233.967 458.221 236.583 457.409 240.41L457.408 240.409C454.691 253.495 449.602 278.154 443.381 294.581L443.38 294.583C439.744 304.156 435.935 311.183 430.669 316.803C425.726 322.078 419.61 325.995 411.441 329.671L409.78 330.403C398.825 335.137 382.145 338 366.206 338C350.578 338 335.938 335.287 323.893 330.104L323.891 330.104C308.275 323.363 298.5 314.82 291.469 304.662C284.491 294.582 280.272 282.976 275.663 270.343V270.342C274.282 266.586 273.11 263.199 272.04 260.138L272.039 260.133C270.421 255.465 269.152 251.881 267.995 249.102C266.833 246.309 265.842 244.479 264.832 243.244C263.873 242.071 262.884 241.42 261.616 241.024C260.264 240.603 258.521 240.448 256 240.448C253.479 240.448 251.738 240.603 250.388 241.024C249.122 241.419 248.135 242.07 247.177 243.243C246.167 244.479 245.177 246.309 244.014 249.103C242.856 251.881 241.585 255.463 239.962 260.128L239.963 260.129C238.911 263.184 237.719 266.586 236.363 270.357L236.358 270.37C231.726 282.991 227.489 294.591 220.504 304.667C213.465 314.82 203.691 323.362 188.087 330.103L188.085 330.104C176.062 335.286 161.422 338 145.794 338C129.832 338 113.174 335.137 102.241 330.402V330.401C93.2223 326.51 86.6041 322.43 81.3262 316.804C76.0534 311.183 72.2439 304.154 68.6191 294.58V294.579C62.3506 278.058 57.2614 253.33 54.5439 240.199V240.2C54.1065 238.128 53.7604 236.434 53.4727 235.082C53.2444 234.01 53.0758 233.274 52.9609 232.841C52.9236 232.806 52.8751 232.76 52.8115 232.706C52.5568 232.489 52.1909 232.217 51.7393 231.923C50.8323 231.331 49.7128 230.731 48.71 230.34L48.7021 230.337L48.6934 230.333C45.7168 229.141 43.8203 226.185 44.0137 223.022L44.0146 223.01L45.7627 197.133L45.7637 197.125L45.7852 196.875C46.0561 194.301 47.6532 192.034 50.0439 190.95L50.7217 190.648C55.9827 188.364 89.2084 175 146.004 175C179.63 175 197.948 180.201 214.005 184.819C227.144 188.572 238.297 191.735 256 191.735C273.68 191.735 284.857 188.572 297.995 184.819C314.052 180.201 332.37 175 365.996 175ZM147.263 200.745C134.105 200.745 119.997 202.069 108.411 205.205C102.618 206.773 97.5291 208.774 93.5225 211.238C89.513 213.704 86.7001 216.56 85.2559 219.8L85.2568 219.801C83.7149 223.276 83.0632 228.98 83.2197 236.039C83.3746 243.02 84.31 251.055 85.7383 259.009C87.1661 266.959 89.0781 274.779 91.167 281.323C93.2767 287.933 95.5026 293.03 97.4834 295.702L97.8867 296.234C106.437 307.31 120.382 312.532 143.883 312.532C173.513 312.532 192.729 302.612 201.857 283.634C208.818 269.141 213.308 255.721 215.21 244.388C217.122 232.991 216.37 223.987 213.205 218.088L213.204 218.087C211.79 215.446 208.866 212.953 204.536 210.718C200.241 208.5 194.768 206.642 188.561 205.153C176.15 202.177 161.077 200.745 147.263 200.745ZM364.761 200.768C350.934 200.768 335.855 202.195 323.438 205.165C317.228 206.651 311.752 208.507 307.453 210.723C303.122 212.954 300.194 215.443 298.773 218.083L298.774 218.084C295.619 223.996 294.878 233.001 296.796 244.396C298.703 255.727 303.194 269.141 310.144 283.636C319.272 302.612 338.488 312.532 368.117 312.532C391.991 312.532 406.002 307.143 414.516 295.681L414.891 295.152C416.775 292.373 418.855 287.509 420.833 281.313C422.922 274.772 424.834 266.955 426.262 259.006C427.69 251.054 428.625 243.019 428.78 236.038C428.937 228.98 428.285 223.276 426.743 219.801V219.8C425.299 216.561 422.486 213.707 418.476 211.243C414.468 208.781 409.377 206.782 403.584 205.217C391.998 202.086 377.895 200.768 364.761 200.768Z" fill="black" stroke="#696969" stroke-width="4"/>
</svg>
