<svg width="512" height="256" viewBox="0 0 512 256" fill="none" xmlns="http://www.w3.org/2000/svg">
<path d="M365.996 47.12C426.458 47.12 460.209 62.2424 461.945 63.0419H461.946C464.305 64.1159 465.939 66.3741 466.214 68.9628L466.236 69.2147L466.237 69.2216L467.985 95.0594L467.986 95.0721L467.999 95.368C468.061 98.4159 466.188 101.224 463.306 102.376L463.295 102.38C462.303 102.77 461.191 103.369 460.283 103.97C459.831 104.269 459.463 104.547 459.201 104.776C459.116 104.851 459.053 104.91 459.01 104.954C458.747 106.001 458.22 108.61 457.409 112.427L457.41 112.428C454.693 125.491 449.604 150.12 443.381 166.525L443.38 166.527C439.744 176.086 435.934 183.103 430.668 188.715C425.725 193.982 419.609 197.893 411.44 201.563L409.779 202.295C398.824 207.021 382.145 209.88 366.206 209.88C350.578 209.88 335.939 207.17 323.894 201.996L323.892 201.995C308.276 195.264 298.501 186.735 291.47 176.593C284.492 166.527 280.273 154.938 275.664 142.324V142.323C274.282 138.572 273.111 135.191 272.041 132.134L272.039 132.13C270.421 127.469 269.153 123.89 267.996 121.115C266.834 118.327 265.843 116.499 264.833 115.266C263.874 114.096 262.885 113.445 261.617 113.051C260.264 112.63 258.521 112.475 256 112.475C253.479 112.475 251.737 112.63 250.387 113.051C249.121 113.445 248.134 114.095 247.176 115.266C246.167 116.499 245.177 118.326 244.014 121.115C242.856 123.89 241.584 127.471 239.96 132.132C238.909 135.18 237.718 138.575 236.363 142.338L236.358 142.35C231.726 154.952 227.49 166.535 220.504 176.597C213.464 186.735 203.689 195.264 188.085 201.995L188.084 201.996C176.061 207.171 161.422 209.88 145.794 209.88C129.832 209.88 113.175 207.021 102.242 202.294V202.293C93.2235 198.408 86.6052 194.333 81.3271 188.716C76.0542 183.103 72.244 176.085 68.6191 166.525V166.524C62.3504 150.028 57.2614 125.337 54.5439 112.225V112.226C54.1065 110.158 53.7604 108.466 53.4727 107.116C53.2447 106.047 53.0767 105.312 52.9619 104.88C52.9246 104.845 52.8761 104.799 52.8125 104.745C52.5578 104.528 52.1918 104.258 51.7402 103.964C50.8332 103.373 49.714 102.773 48.7109 102.383L48.7031 102.379L48.6943 102.376C45.7184 101.186 43.8199 98.2329 44.0137 95.0721L44.0146 95.0594L45.7627 69.2216L45.7637 69.2147L45.7852 68.9637C46.0485 66.4684 47.5608 64.2634 49.833 63.1464L50.0625 63.038C51.8912 62.1974 85.6312 47.12 146.004 47.12C179.63 47.12 197.947 52.3131 214.004 56.9247C227.143 60.672 238.296 63.83 256 63.83C273.681 63.83 284.858 60.6719 297.996 56.9247C314.053 52.3131 332.37 47.12 365.996 47.12ZM147.263 72.8319C134.105 72.8319 119.996 74.1547 108.41 77.286C102.617 78.8516 97.5282 80.8503 93.5215 83.3104C89.512 85.7723 86.6997 88.624 85.2559 91.8573L85.2568 91.8583C83.7153 95.3272 83.0632 101.021 83.2197 108.069C83.3745 115.039 84.31 123.063 85.7383 131.004C87.166 138.942 89.0772 146.75 91.166 153.284C93.2763 159.886 95.5034 164.976 97.4844 167.642C105.997 179.064 120.01 184.444 143.883 184.444C173.514 184.444 192.731 174.538 201.858 155.59C208.819 141.119 213.309 127.721 215.21 116.405C217.122 105.026 216.369 96.0375 213.205 90.1483V90.1473C211.791 87.5108 208.868 85.0221 204.537 82.7899C200.242 80.5759 194.769 78.7206 188.562 77.2343C176.151 74.2627 161.077 72.8319 147.263 72.8319ZM364.761 72.8553C350.934 72.8553 335.854 74.2801 323.438 77.246C317.227 78.7295 311.751 80.5827 307.452 82.7948C303.121 85.0234 300.193 87.5078 298.772 90.1434L298.773 90.1444C295.619 96.046 294.878 105.037 296.796 116.413C298.703 127.727 303.194 141.121 310.144 155.593H310.143C319.271 174.539 338.487 184.444 368.117 184.444C391.991 184.444 406.004 179.064 414.517 167.619V167.618L414.891 167.091C416.774 164.316 418.856 159.46 420.834 153.274C422.923 146.743 424.834 138.937 426.262 131.001C427.69 123.061 428.625 115.039 428.78 108.069C428.937 101.022 428.285 95.3272 426.743 91.8583V91.8573C425.299 88.6247 422.487 85.7741 418.477 83.3143C414.468 80.8563 409.378 78.8606 403.585 77.2977C391.999 74.172 377.895 72.8554 364.761 72.8553Z" fill="black" stroke="#696969" stroke-width="4"/>
</svg>
